<svg width="500" height="500" viewBox="0 0 500 500" fill="none" xmlns="http://www.w3.org/2000/svg">
<g clip-path="url(#clip0_104_2)">
<path d="M484.375 31.25H46.875C38.2456 31.25 31.25 38.2456 31.25 46.875V484.375C31.25 493.004 38.2456 500 46.875 500H484.375C493.004 500 500 493.004 500 484.375V46.875C500 38.2456 493.004 31.25 484.375 31.25Z" fill="#FF3D00"/>
<path d="M453.125 0H15.625C6.99555 0 0 6.99555 0 15.625V453.125C0 461.754 6.99555 468.75 15.625 468.75H453.125C461.754 468.75 468.75 461.754 468.75 453.125V15.625C468.75 6.99555 461.754 0 453.125 0Z" fill="black"/>
<path d="M390.625 78.125H78.125V421.875H390.625V78.125Z" fill="#FF3D00" stroke="black"/>
<path d="M343.75 140.625H125V171.875H343.75V140.625Z" fill="black"/>
<path d="M343.75 203.125H125V234.375H343.75V203.125Z" fill="black"/>
<path d="M343.75 265.625H125V296.875H343.75V265.625Z" fill="black"/>
<path d="M281.25 328.125H125V359.375H281.25V328.125Z" fill="black"/>
<path d="M359.375 109.375H421.875V390.625L359.375 328.125V109.375Z" fill="#FF3D00" stroke="black"/>
<path d="M78.125 101.562C91.0692 101.562 101.562 91.0692 101.562 78.125C101.562 65.1808 91.0692 54.6875 78.125 54.6875C65.1808 54.6875 54.6875 65.1808 54.6875 78.125C54.6875 91.0692 65.1808 101.562 78.125 101.562Z" fill="#FF3D00" stroke="black"/>
<path d="M390.625 414.062C403.569 414.062 414.062 403.569 414.062 390.625C414.062 377.681 403.569 367.188 390.625 367.188C377.681 367.188 367.188 377.681 367.188 390.625C367.188 403.569 377.681 414.062 390.625 414.062Z" fill="#FF3D00" stroke="black"/>
</g>
<defs>
<clipPath id="clip0_104_2">
<rect width="500" height="500" fill="white"/>
</clipPath>
</defs>
</svg>
